<svg width="101" height="131" viewBox="0 0 101 131" fill="none" xmlns="http://www.w3.org/2000/svg">
<path d="M92.0518 0H8.94429C3.99878 0 0 3.81727 0 8.52331V122.477C0 127.183 3.99878 131 8.94429 131H92.0518C96.9931 131 101 127.183 101 122.477V8.52331C101 3.81727 96.9931 0 92.0518 0Z" fill=""/>
<path d="M77.3106 21.178V8H24.6716V27.1347C16.5883 29.1162 10.5449 36.7518 10.5449 46.0802C10.5449 54.9989 16.4545 62.0938 24.6716 64.0184V75.0304H77.3106V30.1439C79.6544 30.0003 81.2513 28.3012 81.2513 26.0738C81.2515 23.8623 79.7726 22.0385 77.3106 21.178ZM24.6721 61.4618C18.3967 60.0621 12.6953 54.5685 12.6953 46.0802C12.6953 37.9324 17.7553 31.1497 24.6594 29.1776C24.6656 29.1776 24.6656 29.1776 24.6721 29.1746V61.4618ZM26.6027 28.7552C27.3229 28.6496 28.0592 28.596 28.808 28.596C31.795 28.596 34.533 29.6584 36.6911 31.4554C36.2369 32.8883 35.9942 34.4032 35.9942 35.9794C35.9942 40.4292 37.8307 44.3858 40.6963 46.8699C40.6963 47.0309 40.5749 47.2546 40.523 47.4059C40.4599 47.5889 40.3921 47.7717 40.3228 47.953C40.1855 48.3108 40.0343 48.6622 39.8703 49.0092C39.5487 49.6869 39.1782 50.341 38.759 50.9621C37.9472 52.1663 36.9511 53.2461 35.8035 54.1352C34.6718 55.0101 33.3948 55.6958 32.0362 56.1433C30.2707 56.7251 28.4407 56.7676 26.6027 56.8053V28.7552ZM49.0128 44.3321C48.3068 45.4608 47.6131 46.6303 46.9069 47.8064C45.4913 47.7071 44.1704 47.2216 43.0072 46.4334C43.3777 44.9674 43.5746 43.4162 43.5746 41.807C43.5746 37.4784 41.8769 33.6465 39.1452 30.9162C41.535 25.2116 47.8401 21.6004 54.2605 21.6004C58.1652 21.6004 61.4073 22.5809 63.7216 24.3935C58.9892 28.2493 54.6844 35.0004 49.0128 44.3321ZM66.4327 27.6438C67.2364 29.1917 67.667 31.0093 67.667 33.0649C67.667 37.9813 63.9091 43.0711 57.3563 44.0076C61.568 36.5327 64.0335 31.1308 66.4327 27.6438ZM41.4356 41.807C41.4356 42.8411 41.3505 43.8404 41.1833 44.8067C39.2967 42.6471 38.1332 39.5086 38.1332 35.9794C38.1332 35.0178 38.2325 34.091 38.4233 33.2034C40.3022 35.5033 41.4356 38.4998 41.4356 41.807ZM26.6027 58.5157C28.2768 58.5157 29.927 58.5393 31.571 58.1705C32.9913 57.8536 34.3582 57.3144 35.616 56.5816C36.8691 55.8517 38.0088 54.9343 39.0019 53.8781C40.0169 52.7936 40.8776 51.5673 41.5633 50.2496C41.9164 49.5702 42.2236 48.8688 42.4839 48.1484C43.5463 48.763 44.7033 49.1999 45.9264 49.4189C45.8382 49.4189 45.1998 50.5807 45.1178 50.7051C44.8372 51.1402 44.5518 51.572 44.2603 51.9992C43.6819 52.849 43.0749 53.6797 42.4288 54.4804C41.1535 56.0583 39.7144 57.5163 38.0577 58.697C36.3285 59.928 34.377 60.8218 32.3121 61.3152C30.4661 61.7565 28.4958 61.9316 26.6027 61.7645V58.5157ZM75.3772 73.0886H26.6027V64.3733C38.7024 65.3331 47.189 60.8911 56.018 46.3184C56.1203 46.1465 57.5689 47.2877 57.6951 47.4153C58.1711 47.8884 58.5464 48.4494 58.8506 49.0454C59.5283 50.3788 59.8626 51.8668 60.1715 53.3201C60.5006 54.8996 60.7797 56.4932 61.2558 58.0381C61.7065 59.5073 62.3527 60.9527 63.4124 62.0891C64.6072 63.3708 66.2308 64.0847 67.9394 64.3733C70.6317 64.824 73.1546 64.1873 75.3772 62.6314V73.0886ZM75.3772 58.3565C75.3772 60.7652 73.3021 62.0118 71.1631 62.0118C68.8332 62.0118 66.3061 60.07 65.5278 53.6591C64.7522 47.6346 61.4468 45.6926 57.9504 45.6926V45.3032C64.1706 45.3032 73.1047 39.8635 73.1047 33.0649C73.1047 29.6551 71.7177 26.7108 69.2777 24.4534C70.7263 23.3202 72.3591 22.7669 74.4653 22.7669C74.705 22.7669 75.1438 22.7746 75.3772 22.7999V58.3565ZM75.3777 20.6972C74.995 20.6515 74.3283 20.6277 73.8837 20.6277C71.1773 20.6277 68.7875 21.252 66.5571 22.4689C63.4345 20.6719 59.35 19.6584 54.6482 19.6584C46.8217 19.6584 40.2895 23.6607 37.4791 29.4835C35.0453 27.6927 32.0488 26.6507 28.808 26.6507C28.0622 26.6507 27.342 26.6949 26.6168 26.7895H26.6027V9.94203H75.3777V20.6972ZM77.3106 28.7773V23.3423C78.6221 23.9348 79.5032 24.9563 79.5032 26.2678C79.5032 27.7069 78.671 28.6496 77.3106 28.7773Z" fill="#AA8A4B"/>
<path d="M6.59726 97.1891V86.7131C6.59726 86.2226 6.59726 86.2226 6 85.085H12.0148C15.29 85.085 17.1029 86.7523 17.1029 88.8712C17.1029 90.617 15.9287 91.9312 13.8275 92.4023L17.3706 96.836C18.2564 97.9543 18.2564 97.9543 19.1422 98.8175H15.3106L10.573 92.5988H9.60468V97.1109C9.60468 97.621 9.60468 97.621 10.4287 98.8175H6C6.59726 97.66 6.59726 97.66 6.59726 97.1891ZM11.2733 91.2252C13.1272 91.2252 13.9924 90.3031 13.9924 88.93C13.9924 87.5373 13.1272 86.6349 11.2733 86.6349H9.60468V91.2252H11.2733Z" fill="#AA8A4B"/>
<path d="M20.358 93.5795V86.7131C20.358 86.2226 20.358 86.2226 19.7607 85.085H24.0657C23.3654 86.2422 23.3654 86.2422 23.3654 86.7327V93.7558C23.3654 95.8354 24.6839 97.1889 26.8673 97.1889C28.9685 97.1889 30.2251 95.8158 30.2251 93.7558V86.7327C30.2251 86.2422 30.2251 86.2422 29.4836 85.085H32.8618C32.2849 86.2422 32.2849 86.2422 32.2849 86.7327V93.5206C32.2849 97.13 30.1221 99.1115 26.3728 99.1115C22.5829 99.1115 20.358 97.2087 20.358 93.5795Z" fill="#AA8A4B"/>
<path d="M35.8282 97.1891V85.6931L35.2513 85.0852H38.815L46.1277 93.8544V86.7332C46.1277 86.2425 46.1277 86.2425 45.3658 85.0852H48.7025C48.1259 86.2425 48.1259 86.2425 48.1259 86.7133V98.9548H46.6842L37.8264 88.636V97.1695C37.8264 97.6602 37.8264 97.6602 38.6504 98.8175H35.2307C35.8282 97.6602 35.8282 97.6602 35.8282 97.1891Z" fill="#AA8A4B"/>
<path d="M50.2686 85.0854H54.8418C54.0794 86.2623 54.0794 86.2623 54.3471 87.0863L56.8397 94.6783L60.5062 85.0461H62.2163L65.8624 94.6587L68.3548 87.0863C68.6434 86.2429 68.6434 86.2429 67.9224 85.0854H71.3828C70.7446 86.223 70.7446 86.223 70.312 87.4198L66.1508 98.9548H64.688L60.8357 89.146L56.9221 98.9351L55.439 98.9548L51.216 87.1844C50.8452 86.1249 50.8452 86.1249 50.2686 85.0854Z" fill="#AA8A4B"/>
<path d="M71.5688 96.5223L76.5953 85.0264H78.6344L83.7018 96.6401C84.1963 97.7583 84.1963 97.7583 84.7935 98.8178H80.1585C80.8178 97.6016 80.8178 97.6016 80.5089 96.8166L79.8498 95.1883H74.2261L73.5255 96.8951C73.2168 97.6796 73.2168 97.6796 73.8965 98.8175H70.415C71.0538 97.66 71.0538 97.66 71.5688 96.5223ZM79.2115 93.5403L77.0691 88.1848L74.8857 93.5403H79.2115Z" fill="#AA8A4B"/>
<path d="M86.2979 98.8175C86.8951 97.66 86.8951 97.66 86.8951 97.1891V86.7131C86.8951 86.2226 86.8951 86.2226 86.2979 85.085H90.5C89.9028 86.2422 89.9028 86.2422 89.9028 86.7131V97.0714H92.56C93.4662 97.0714 94.0225 97.0714 96.0001 95.5608L95.6705 98.8173H86.2979V98.8175Z" fill="#AA8A4B"/>
<path d="M22.0958 110.449V104.481C22.0958 104.202 22.0958 104.202 21.7715 103.554H25.0347C26.8116 103.554 27.795 104.504 27.795 105.711C27.795 106.705 27.158 107.454 26.0181 107.722L27.9403 110.248C28.4206 110.885 28.4206 110.885 28.9011 111.376H26.8228L24.2524 107.834H23.7272V110.404C23.7272 110.695 23.7272 110.695 24.1742 111.376H21.7715C22.0958 110.717 22.0958 110.717 22.0958 110.449ZM24.6324 107.051C25.6382 107.051 26.1075 106.526 26.1075 105.744C26.1075 104.95 25.6382 104.436 24.6324 104.436H23.7272V107.051H24.6324V107.051Z" fill="#AA8A4B"/>
<path d="M32.9917 111.376C33.3158 110.717 33.3158 110.717 33.3158 110.449V104.481C33.3158 104.202 33.3158 104.202 32.9917 103.554H38.3668V105.174C37.5848 104.504 37.3387 104.504 36.9364 104.504H34.9474V106.817H36.5676C36.9252 106.817 37.1042 106.817 37.7412 106.381V108.202C37.1042 107.767 36.914 107.767 36.5564 107.767H34.9474V110.426H36.724C37.1934 110.426 37.4618 110.426 38.4786 109.655L38.3 111.376H32.9917V111.376Z" fill="#AA8A4B"/>
<path d="M43.0272 110.069L45.754 103.52H46.8601L49.6092 110.136C49.8774 110.773 49.8774 110.773 50.2015 111.376H47.6871C48.0447 110.683 48.0447 110.683 47.8771 110.236L47.5194 109.309H44.4688L44.0889 110.281C43.9212 110.728 43.9212 110.728 44.29 111.376H42.4014C42.7478 110.717 42.7478 110.717 43.0272 110.069ZM47.1728 108.37L46.0105 105.32L44.8262 108.37H47.1728Z" fill="#AA8A4B"/>
<path d="M54.3696 111.376C54.6942 110.717 54.6942 110.717 54.6942 110.449V104.481C54.6942 104.202 54.6942 104.202 54.3696 103.554H56.6497C56.3253 104.213 56.3253 104.213 56.3253 104.481V110.382H57.7672C58.2587 110.382 58.5604 110.382 59.6332 109.521L59.4547 111.376H54.3696V111.376Z" fill="#AA8A4B"/>
<path d="M62.55 103.553H69.1209V105.353C68.3608 104.537 68.1151 104.537 67.7017 104.537H66.6514V110.449C66.6514 110.728 66.6514 110.728 67.0425 111.376H64.5507C65.0198 110.683 65.0198 110.683 65.0198 110.404V104.537H63.9586C63.5452 104.537 63.2993 104.537 62.5503 105.353V103.553H62.55Z" fill="#AA8A4B"/>
<path d="M75.7816 110.404V108.079L73.7922 104.727C73.4125 104.101 73.4125 104.101 72.9878 103.553H75.5472C75.536 104.18 75.4352 104.246 75.4352 104.336C75.4352 104.392 75.4687 104.447 75.6254 104.715L76.8992 106.895L78.2072 104.727C78.3636 104.47 78.4081 104.391 78.4081 104.347C78.4081 104.246 78.2963 104.157 78.2628 103.553H80.2185C79.7827 104.146 79.7827 104.146 79.4586 104.671L77.4247 107.99V110.448C77.4247 110.728 77.4247 110.728 77.8158 111.376H75.3013C75.7816 110.683 75.7816 110.683 75.7816 110.404Z" fill="#AA8A4B"/>
<path d="M26.7226 121.922C26.5083 121.848 26.3231 121.743 26.1666 121.609L26.0884 120.587C26.3044 120.892 26.5364 121.123 26.7842 121.279C27.0318 121.436 27.2861 121.514 27.5469 121.514C27.7257 121.514 27.867 121.468 27.9716 121.377C28.0756 121.286 28.128 121.164 28.128 121.011C28.128 120.888 28.0898 120.783 28.0133 120.696C27.937 120.608 27.8149 120.528 27.6475 120.458L26.9211 120.156C26.4328 119.947 26.189 119.603 26.189 119.123C26.189 118.895 26.2476 118.693 26.365 118.516C26.4822 118.339 26.6444 118.201 26.8513 118.103C27.0579 118.004 27.2916 117.954 27.5524 117.954C27.9919 117.954 28.3736 118.078 28.698 118.323V119.211C28.5303 118.966 28.3384 118.779 28.1223 118.65C27.9062 118.521 27.6865 118.457 27.4629 118.457C27.2879 118.457 27.1528 118.498 27.0579 118.58C26.9628 118.662 26.9154 118.768 26.9154 118.899C26.9154 119.119 27.0495 119.282 27.3177 119.39L28.0999 119.709C28.3421 119.802 28.5293 119.939 28.6617 120.119C28.7938 120.3 28.8599 120.521 28.8599 120.781C28.8599 121.027 28.8003 121.245 28.6811 121.435C28.5619 121.625 28.3942 121.772 28.1782 121.876C27.9621 121.981 27.7163 122.033 27.4406 122.033C27.1761 122.034 26.9367 121.997 26.7226 121.922Z" fill="#AA8A4B"/>
<path d="M31.8354 121.645C31.8486 121.606 31.855 121.553 31.855 121.486V118.502C31.855 118.432 31.8486 118.377 31.8354 118.338C31.8223 118.298 31.7748 118.199 31.6929 118.039H32.8273C32.7491 118.202 32.7034 118.304 32.6905 118.343C32.6773 118.382 32.6708 118.435 32.6708 118.502V121.487C32.6708 121.557 32.6773 121.611 32.6905 121.648C32.7034 121.686 32.7491 121.786 32.8273 121.95H31.6929C31.7746 121.786 31.8223 121.685 31.8354 121.645Z" fill="#AA8A4B"/>
<path d="M35.9365 121.645C35.9494 121.606 35.9561 121.553 35.9561 121.486V118.212L35.7997 118.039H36.7662L38.75 120.536V118.508C38.75 118.456 38.747 118.417 38.7415 118.391C38.7358 118.365 38.7164 118.323 38.6829 118.265C38.6494 118.207 38.6027 118.132 38.5431 118.039H39.4483C39.3701 118.202 39.3244 118.304 39.3115 118.343C39.2983 118.382 39.2918 118.435 39.2918 118.502V121.989H38.9007L36.498 119.05V121.481C36.498 121.533 36.5017 121.572 36.5092 121.598C36.5166 121.624 36.538 121.666 36.5735 121.724C36.6088 121.782 36.6582 121.857 36.7215 121.95H35.7939C35.8759 121.786 35.9233 121.685 35.9365 121.645Z" fill="#AA8A4B"/>
<path d="M43.1618 121.78C42.8692 121.61 42.643 121.376 42.4828 121.078C42.3226 120.781 42.2427 120.441 42.2427 120.061C42.2427 119.641 42.3284 119.271 42.4995 118.952C42.6708 118.634 42.9132 118.388 43.2261 118.215C43.539 118.042 43.9021 117.955 44.3156 117.955C44.8595 117.955 45.2933 118.081 45.6174 118.335V119.296C45.45 119.02 45.258 118.817 45.042 118.687C44.8259 118.556 44.5801 118.491 44.3044 118.491C43.9282 118.491 43.6292 118.608 43.4076 118.843C43.1859 119.078 43.0751 119.402 43.0751 119.815C43.0751 120.125 43.1347 120.393 43.2539 120.62C43.3731 120.847 43.5408 121.021 43.7568 121.143C43.9729 121.263 44.2207 121.324 44.5001 121.324C44.7646 121.324 44.999 121.275 45.2042 121.178C45.4088 121.081 45.5672 120.944 45.679 120.765C45.6417 121.178 45.4955 121.493 45.2404 121.709C44.9851 121.925 44.6285 122.034 44.1703 122.034C43.7903 122.034 43.4541 121.949 43.1618 121.78Z" fill="#AA8A4B"/>
<path d="M48.4951 121.95C48.5768 121.786 48.6245 121.684 48.6374 121.645C48.6506 121.606 48.657 121.553 48.657 121.486V118.502C48.657 118.431 48.6506 118.376 48.6374 118.337C48.6245 118.298 48.5768 118.199 48.4951 118.038H51.1829V118.848C51.06 118.74 50.9574 118.663 50.8755 118.616C50.7935 118.57 50.7255 118.541 50.6716 118.53C50.6174 118.518 50.5492 118.513 50.4674 118.513H49.4731V119.67H50.2829C50.3872 119.67 50.4749 119.659 50.5457 119.636C50.6165 119.614 50.7247 119.552 50.87 119.452V120.363C50.7247 120.262 50.6157 120.2 50.5429 120.178C50.4702 120.156 50.3818 120.145 50.2775 120.145H49.4731V121.474H50.3614C50.458 121.474 50.5382 121.468 50.6018 121.455C50.6651 121.442 50.7461 121.408 50.8447 121.354C50.9435 121.3 51.0746 121.212 51.2385 121.089L51.1494 121.949L48.4951 121.95Z" fill="#AA8A4B"/>
<path d="M57.9525 121.679C57.9913 121.61 58.0148 121.56 58.022 121.528C58.0295 121.496 58.0332 121.451 58.0332 121.391V118.927H57.2676L58.6645 118.011H58.8155V121.397C58.8155 121.457 58.819 121.502 58.8267 121.534C58.8341 121.566 58.8575 121.616 58.8965 121.685C58.9357 121.753 58.9906 121.842 59.0614 121.95H57.7874C57.8581 121.838 57.9133 121.748 57.9525 121.679Z" fill="#AA8A4B"/>
<path d="M64.1544 118.181C64.3946 118.332 64.5791 118.546 64.708 118.824C64.8364 119.101 64.9004 119.426 64.9004 119.799C64.9004 120.227 64.8175 120.612 64.6516 120.953C64.4859 121.294 64.255 121.559 63.9587 121.749C63.6629 121.939 63.3227 122.034 62.9393 122.034C62.6636 122.034 62.4287 121.981 62.2352 121.874C62.0418 121.768 61.9092 121.624 61.8384 121.442C62.0244 121.52 62.2499 121.559 62.5146 121.559C62.9579 121.559 63.318 121.419 63.5959 121.14C63.8733 120.86 64.0307 120.473 64.0682 119.977C63.8743 120.313 63.5557 120.48 63.1124 120.48C62.87 120.48 62.6539 120.428 62.4644 120.324C62.2742 120.219 62.1282 120.076 62.0254 119.893C61.9233 119.711 61.8722 119.51 61.8722 119.29C61.8722 119.029 61.9335 118.797 62.0562 118.594C62.1791 118.391 62.35 118.234 62.5678 118.122C62.7858 118.01 63.0307 117.954 63.3026 117.954C63.6302 117.955 63.9143 118.03 64.1544 118.181ZM62.9055 119.729C63.0396 119.88 63.2207 119.955 63.4479 119.955C63.5932 119.955 63.7188 119.92 63.8249 119.849C63.9314 119.778 64.0121 119.679 64.0682 119.553C64.0494 119.18 63.9759 118.896 63.847 118.701C63.7186 118.505 63.5442 118.407 63.3245 118.407C63.1419 118.407 62.9932 118.474 62.8777 118.606C62.7622 118.738 62.7043 118.916 62.7043 119.139C62.7043 119.382 62.7714 119.578 62.9055 119.729Z" fill="#AA8A4B"/>
<path d="M69.5717 118.698H67.4429L67.6607 118.039H70.382L68.6049 121.95H67.8059L69.5717 118.698Z" fill="#AA8A4B"/>
<path d="M73.5867 121.897C73.3535 121.806 73.1747 121.678 73.05 121.514C72.9254 121.35 72.863 121.162 72.863 120.95C72.863 120.73 72.9336 120.542 73.0751 120.386C73.2167 120.229 73.4109 120.12 73.6567 120.056C73.4519 119.952 73.2912 119.815 73.1757 119.645C73.0602 119.476 73.0026 119.285 73.0026 119.072C73.0026 118.864 73.0602 118.675 73.1757 118.505C73.2912 118.336 73.4533 118.202 73.662 118.103C73.8706 118.005 74.1052 117.955 74.366 117.955C74.6379 117.955 74.8811 117.996 75.0954 118.078C75.3092 118.16 75.4773 118.275 75.598 118.424C75.7192 118.573 75.7798 118.745 75.7798 118.938C75.7798 119.143 75.7155 119.317 75.5869 119.461C75.4585 119.604 75.2859 119.707 75.07 119.771C75.3606 119.882 75.5729 120.023 75.707 120.193C75.8411 120.362 75.9082 120.577 75.9082 120.838C75.9082 121.065 75.8446 121.27 75.7182 121.453C75.5916 121.635 75.4135 121.778 75.1845 121.88C74.9556 121.983 74.6938 122.034 74.3995 122.034C74.0906 122.034 73.8192 121.988 73.5867 121.897ZM73.8743 121.422C74.0156 121.551 74.2038 121.615 74.4383 121.615C74.6469 121.615 74.8175 121.56 74.9499 121.45C75.0817 121.34 75.1483 121.197 75.1483 121.022C75.1483 120.87 75.1016 120.744 75.0085 120.645C74.9153 120.546 74.7666 120.462 74.5614 120.391L74.0474 120.207C73.7906 120.344 73.662 120.579 73.662 120.911C73.662 121.123 73.7327 121.294 73.8743 121.422ZM73.8827 119.235C73.9811 119.343 74.1293 119.43 74.3268 119.497L74.6454 119.615C74.8912 119.48 75.0142 119.261 75.0142 118.955C75.0142 118.776 74.9528 118.63 74.8297 118.517C74.7067 118.403 74.5465 118.346 74.3491 118.346C74.1668 118.346 74.0186 118.393 73.9051 118.489C73.7913 118.583 73.7342 118.707 73.7342 118.86C73.7345 119.002 73.7839 119.126 73.8827 119.235Z" fill="#AA8A4B"/>
</svg>
